/* XPM */
static char *a10bd980bbec4cfae387762edd6d6de7uihKMLgX9Yb51XkB[] = {
/* columns rows colors chars-per-pixel */
"50 50 2 1 ",
"  c None",
". c black",
/* pixels */
"                                                  ",
"                                                  ",
"                                                  ",
"                                                  ",
"                                                  ",
"                        .                         ",
"                       ....                       ",
"                      .....            .          ",
"                      .....           ...         ",
"                     ......           ..          ",
"                     ......                       ",
"                     ......                       ",
"                    ......                        ",
"                   .......                        ",
"                    . .....                       ",
"                      .....          ..           ",
"                      ......                      ",
"                      ......                      ",
"          .           ......                      ",
"                      ......                      ",
"                      ......                      ",
"                      ......                      ",
"                      ......                      ",
"                     .......                      ",
"                    ........                      ",
"                   .........                      ",
"                  ..........                      ",
"                  ..........                      ",
"                   ..........                     ",
"                    .........                     ",
"                     ........                     ",
"                      .. ...                      ",
"                      ..  ...                     ",
"                      ..  ...                     ",
"                      ..   ..                     ",
"                      ..   ..                     ",
"                     ..    ..                     ",
"                     ..     .                     ",
"        ..           ..     ..                    ",
"        .            ..     ..                    ",
"                     ..      .                    ",
"                     .       ..                   ",
"                     .       ..                   ",
"                     .        .                   ",
"                     .        ....                ",
"                    ...       ...                 ",
"                     ...                          ",
"                                                  ",
"                                                  ",
"                                                  "
};
