/* XPM */
static char *_600053497af4757b89a8df92267f106kYXPKiomJG2PGnUg[] = {
/* columns rows colors chars-per-pixel */
"50 50 214 2 ",
"   c #26262B",
".  c #27282C",
"X  c #2A2A2E",
"o  c #332D2D",
"O  c #3A2E2B",
"+  c #3C322B",
"@  c #2D2D31",
"#  c #312E31",
"$  c #382F31",
"%  c #2F3033",
"&  c #333234",
"*  c #3B3435",
"=  c #353639",
"-  c #3D3639",
";  c #3C393B",
":  c #71351F",
">  c #4A2F26",
",  c #42322C",
"<  c #4A352A",
"1  c #573224",
"2  c #5D3524",
"3  c #423536",
"4  c #493837",
"5  c #413739",
"6  c #463A3B",
"7  c #4C3C3C",
"8  c #573C39",
"9  c #543E3E",
"0  c #643A23",
"q  c #723B21",
"w  c #6E431F",
"e  c #73451E",
"r  c #4F403F",
"t  c #59403F",
"y  c #694525",
"u  c #795033",
"i  c #3E3F43",
"p  c #4F3F42",
"a  c #543F41",
"s  c #5B3F43",
"d  c #464649",
"f  c #524142",
"g  c #5D4244",
"h  c #5F4849",
"j  c #565557",
"k  c #5A5A5D",
"l  c #624447",
"z  c #634847",
"x  c #644549",
"c  c #69464A",
"v  c #65484A",
"b  c #66494B",
"n  c #664A4B",
"m  c #6A494B",
"M  c #6B484C",
"N  c #6A4A4D",
"B  c #6C494D",
"V  c #6D4B4D",
"C  c #6D4A4E",
"Z  c #6E4B4F",
"A  c #6B4C4D",
"S  c #6F4D4E",
"D  c #714E4E",
"F  c #714F4F",
"G  c #6E504E",
"H  c #73504F",
"J  c #7A584A",
"K  c #6B4E50",
"L  c #6F4C50",
"P  c #704D51",
"I  c #704E50",
"U  c #724F51",
"Y  c #6B5654",
"T  c #735051",
"R  c #745051",
"E  c #755252",
"W  c #765252",
"Q  c #7A5655",
"!  c #7C5857",
"~  c #79575A",
"^  c #7D5A59",
"/  c #626264",
"(  c #676769",
")  c #6B6B6D",
"_  c #766766",
"`  c #746C6D",
"'  c #7B6C6C",
"]  c #79726A",
"[  c #7D736E",
"{  c #6F6F71",
"}  c #736F71",
"|  c #7C6F71",
" . c #737375",
".. c #7A7473",
"X. c #767679",
"o. c #78777A",
"O. c #7A797C",
"+. c #AF171C",
"@. c #B1171C",
"#. c #B41A1D",
"$. c #BA1C1D",
"%. c #8C3E1C",
"&. c #9C3C16",
"*. c #B7201B",
"=. c #BB211C",
"-. c #AC1E23",
";. c #B51C20",
":. c #B91E21",
">. c #9E3236",
",. c #9E363A",
"<. c #973C3E",
"1. c #AA252A",
"2. c #A8262A",
"3. c #B52425",
"4. c #BC2321",
"5. c #B73D2D",
"6. c #A42D33",
"7. c #A43638",
"8. c #C11E1C",
"9. c #CF3B0F",
"0. c #D83A0C",
"q. c #C82B14",
"w. c #C3211B",
"e. c #CA3715",
"r. c #C12722",
"t. c #CA3225",
"y. c #D13A28",
"u. c #88451A",
"i. c #8B5017",
"p. c #A54817",
"a. c #B14317",
"s. c #BC5C18",
"d. c #97542F",
"f. c #B9522B",
"g. c #B74F31",
"h. c #AE5938",
"j. c #B65936",
"k. c #9F602C",
"l. c #A0662B",
"z. c #A46A33",
"x. c #B76636",
"c. c #A9723D",
"v. c #B3783A",
"b. c #C7480B",
"n. c #D9460B",
"m. c #C5550E",
"M. c #D95609",
"N. c #D44A17",
"B. c #CE541E",
"V. c #DC5411",
"C. c #DC5D12",
"Z. c #E54306",
"A. c #E55707",
"S. c #DC6807",
"D. c #D76A17",
"F. c #E76607",
"G. c #EB6C04",
"H. c #EE7203",
"J. c #E87709",
"K. c #E57D0D",
"L. c #F07C03",
"P. c #E17011",
"I. c #C56929",
"U. c #CA7827",
"Y. c #C5722F",
"T. c #973D41",
"R. c #8D494F",
"E. c #974547",
"W. c #8E4C51",
"Q. c #895455",
"!. c #855559",
"~. c #89565A",
"^. c #835A5C",
"/. c #8A595C",
"(. c #945B53",
"). c #A55B43",
"_. c #8C6D44",
"`. c #996A49",
"'. c #9A7049",
"]. c #8B675A",
"[. c #936656",
"{. c #966955",
"}. c #967255",
"|. c #9B7252",
" X c #90775D",
".X c #A76847",
"XX c #A97847",
"oX c #8C5F61",
"OX c #866965",
"+X c #846D64",
"@X c #826D6C",
"#X c #8A7163",
"$X c #81756B",
"%X c #88746A",
"&X c #817475",
"*X c #85797C",
"=X c #B68438",
"-X c #D5871D",
";X c #EA8409",
":X c #F18503",
">X c #F38C03",
",X c #EA930C",
"<X c #F39303",
"1X c #F69B02",
"2X c #F7A302",
"3X c #F9A702",
"4X c #FAB202",
"5X c #CA8229",
"6X c #D18B22",
"7X c #7D7C81",
"8X c #857E85",
"9X c #828086",
"0X c #838188",
"qX c #89878E",
/* pixels */
"x c c B P B B B c c c c c c l c M c l s s s s x c c M P M M M B L B x c c c c L c c c c L c l c c l ",
"x c c c B P B B P L c c l l c l l s s s s s x s s x x M M c c c x L c L L c c c c B B c B c M c c c ",
"c M c l L L B c B L c c c c c l s s s l s x x l s x M M M c x c S M x L B c c c M P B c B B P B c M ",
"B c l l B L B c l B B B M c M c s l l c l x x c x M M M P M x c M M x B c c B L P B L L L c B M c B ",
"x x h x x B B c x x c B L B B L P P U P c B M M B L P P B c x x x s s g c B B B P L P P P L c l B P ",
"x s s s s c L x g x L L P P L E L M B P P U P M L L M x x x s s s x x s x K P P M B P P P P P L P P ",
"x s g x s x x g g x x L L P E D L M P U L P P P M M x x x x s s s g g x x x n m P P P P L P P L c l ",
"x h h g s x h x x x g B B K D B M P U P M P P B x M M x s l x x h g x x x x l A P P P P c P K c x s ",
"s g x h g x x x x x g n n n n c S H H S S D S S L L L x x n m B B n x z n x m D P P B n m S B x s l ",
"M x x x x x x g g l x n n x x l m L L H S D D T U T E T P E T P E U D B D P D B T T g f S S m B c l ",
"x x x M g * f l l n L L B D D D H D D D B D D E L P T T D E T D T E P E E D D E T E f 5 n n z n n n ",
"L L L M l o 9 l n A E W E D E ! E T H n m m m S L L P P P F E E E n 6 H E P H E H H f - z l z n x x ",
"W W P P M X 9 M S S D W W E E H H E T m n n n m F F F E H H E Q E h & m D D E F D E f ; n z m S B x ",
"Q Q W T S * 7 n E T F E W W P E L D D S n n n m R F F H H D E E ~ n & g g m E E g S r * g m T T L S ",
"~ Q Q W T 6 & f Q Q H E W W D m B n l n n n l l D S D F F U ! Q Q n = X X 9 E m X s 7 X $ m Q Q ! ! ",
"Q Q T T S @ X 7 H D E Q ! W D m n n n A n m m n m x U Q ! D E ! Q x @ @ X 9 E S o & o X # T H E Q Q ",
"Q Q Q H A o X 7 E E Q Q Q E E H E E T E H E Q Q H G E Q Q H A H E h @ & @ & 7 g @ @ X . @ g n H P S ",
"! ! Q E z = & 5 n Q ! ! ! Q Q Q ! Q Q ! Q Q Q Q Q H Q ^ Q Q g G Q l @ & @ X # - @ . @ & . * f x c l ",
"^ E H m r 5 @ @ ; W ^ S n Y ^ ! ! Q Q ! H ! ! J E g E ^ ^ ^ g A E h X & @ X X X X X & =     6 9 9 g ",
"^ m g t 7 & X @ 6 W Q 6 & 7 Q H H Q ! E z Y ^ ! Y & n ^ ^ J t g A h .   X @ X . X X @ & X . 4 3 & 9 ",
"Q z t r o X X @ - 9 & & % @ & # L ^ ^ H g H ! Y 9 X n ^ ! Q f t g 7 X @ X % & X @ X X @ @ . 7 5 O 9 ",
"^ n t 7 @   & & - 4 X @ @ X X @ Y ^ E S t E ^ n # & d 7 f Q t t 9 4 @ . X X X X X X X X . @ 5 * # 9 ",
"g t t 7 X   & & & * X X @ % . @ 7 h n z t G ^ n X & & X & f t 7 * * @ . . . X & X . . X @ @ & @ X $ ",
"$ 7 t 7 X   & & X X @ @ & & X . . * r g g z n f X & X X X o 9 * X X % . X X X = @ . @ @ % @ @ . X . ",
"X 6 t 7 & o   o % @ & @ & & . @ X X * 9 g g 3 X X X X % % X 9 o . % ; X X . X X @ X @ * = X X X X X ",
"X & * 3 X 2 + & & X X X @ @ . . X X & & 6 a 3 @ & X @ X X X @ X . & ; X % @ X X @ X & & X . & & & = ",
"X X @ @ > &.1 X % X X X @ @ . @ X & & X & 7 3 X X X o X > &.O X % & = X & %   X @ @ X # X o & @ X X ",
". X @ X , M.0 X . X & @ X X @ % X @ < : : 8 * X X   X X 0 n.+ X % & % . X X   X @ @ X , u.i.< @ X   ",
"@ @ @ @ < S.y   . X & @ X X X o X X 2 m.b.0 # @ . . X , %.M.w + & = . . .     X % @ , u.F.H.y @ . X ",
"@ @ X O e J.e + O . X @ X X X   X o q G.F.0 @ # @ @ @ u.A.G.S.y % % & % % X X % d = u.G.>X:Xy @ X X ",
"@   @ y S.<XJ.M.p.o @ = = X   X X e F.>XH.w o @ . . @ u.H.<X>Xy = d ) ; = = * 4 ( i i.:X3X1Xy & & & ",
"k = 0 s.:X2X<XH.S.p.j / R.&.%.j j k.L.1X:Xm.u j j k k z.:X3X<Xz.Y (  ./ ( / J a.*X/ l.:X3X<X_./ / k ",
"{ k d.F.:X1X>X:XG.C.' X.[.f.g._ ( `.-X<X-XI.`._ ].}  .v.:X2X>Xv.@X .O.O.7X .OX).*X .`.U.6X6X Xo.O.8X",
"O. ..XI.K.6X5XU.U.I.| 7X#X(.[. . .%XXX5XXX|.@X#Xh... .XX;X,XK.XX'  .O.7XO. .} _ oX_ ].`.'.'.+X..*X8X",
"8X| | {.I._ ' _ ' ..' 8X..} ..9XO. . . .X.X. .[.N.@X .|.Y.U.I.#X . .} {  ..._ R.:.,.Q.!.Q !.!.Q.Q.~.",
"1.2.1.1.3.2.2.2.6.,.1.1.6.E. .X.{ { o.X.X. .....@X .....] ] _ `  . .{ { } R.-.-.;.;.;.1.-.-.-.-.-.-.",
";.;.r.r.$.+.#.;.#.4.;.:.:.3.7.7.>.T.~. . . .X. ... .X.O.7XX.{ !.T.,.5.>.>.1.4.@.#.#.=.w.8.;.$.:.#.$.",
"8.$.:.:.@.$.$.#.#.$.@.;.;.:.8.:.@.3.7.W.}  .7X7X . .X.O.o...W.7.1.:.8.:.#.:.#.+.@.#.q.0.8.:.:.#.#.$.",
"8.$.@.@.#.$.$.#.#.4.;.@.@.;.;.4.:.$.;.1.`  .7X7X .X.X. . ._ 1.;.;.$.$.=.$.#.#.@.@.#.q.Z.8.;.#.:.=.;.",
"@.#.;.#.#.$.$.@.4.y.:.#.#.;.;.y.3.4.r.2.|  . . . . .O.X. ...6.-.-.-.$.@.$.;.#.@.*.$.9.n.$.:.;.r.t.;.",
"@.:.8.8.4.@.$.#.@.#.#.$.$.+.+.;.E././.~ .. .{  . . . . .X...` ].~.E.w.0.n.q.+.#.M.A.P.G.n.#.#.#.#.#.",
"8.:.:.w.=.1.e.0.e.7.,.7.7.<.!./._ ` } `  . . . . . . .' '  .X...| @X(.N.Z.f.Q.[.J.:X<X<XF.n.).E.<.T.",
"T.E.E.d.E.5.A.A.B.Q.^.^.!._  . .X. .X.O.{  . .X.{  .` `.x..X..O. . ._ N.n.h.X.[ ;X1X3X3X:XF.{._ ^ ~ ",
" .X.@X@X_ M.F.H.D.`... . . . .X.X.X.X.8X .X.O.X. . . Xv.H.D.$X . .} _ h.j.{...$X,X2X4X4X1XH..X|  .{ ",
"{ | &X8X$XV.:X>X:XF.%X{ ` ..` X.X.X.X.X.X.X.X.X. .0XY.K.>X;X..{ {  .X.o. . . .] ;X1X2X1X>XJ.x.OX .X.",
"} g.). .%XC.>X2X1XK.x.%X.Xf. .9Xo.X.X. . .X.X. .) O.Y.>X<X;X] X. .X.7X . .7X9X[ P.L.H.L.P.x.#X.. .X.",
"{ j.). .$XC.>X1X<X:XV.[.).N.].O.X. . .{ X.X. . . .O.Y.K.;XU.[ X. .X.7X . .X.O.O. X|.|.}.}.%X[ X.7XX.",
"{ [.OX7X*X.Xv.=X=Xv.x.OX[..X#X . . . .{ X.X. . .X.X.[.c.c.`...X.X.X.7X .X...o.O. .{ {  .X.X. .o.o.X.",
"} { o.9X0Xo...} } ] ..{  ...X.{  . . . .{  . . .X.X.) ) } )  .X. . . . .X. .X.o.7XX. . .X.X. . .X. .",
" .( { o.o.o. .) (  . . . . . .{  . .{ X. . . . . . . . .X.X.X.X.X.X.{  . . . .7XqXqX7XX.7Xo. .X.X. ."
};
