/* XPM */
static char *c02cac4e902f481df5f9aacc87276c94FAtYWo1ggpxM7l0u[] = {
/* columns rows colors chars-per-pixel */
"50 50 126 2 ",
"   c None",
".  c #654F34",
"X  c #655034",
"o  c #695436",
"O  c #6C5B36",
"+  c #6A5439",
"@  c #6C5A3C",
"#  c #72543C",
"$  c #78563F",
"%  c #775D3E",
"&  c #6E6037",
"*  c #6F6138",
"=  c #716539",
"-  c #746A3A",
";  c #79723B",
":  c #7E7A3D",
">  c #7A5741",
",  c #715E41",
"<  c #7E5843",
"1  c #756345",
"2  c #776648",
"3  c #7C6D4D",
"4  c #7E6F50",
"5  c #7F7051",
"6  c #807F3E",
"7  c #825A46",
"8  c #875B49",
"9  c #8B5D4B",
"0  c #915F4F",
"q  c #9D6356",
"w  c #827555",
"e  c #857857",
"r  c #867959",
"t  c #8A7E5E",
"y  c #A16458",
"u  c #B36A63",
"i  c #B96C67",
"p  c #BE6E6A",
"a  c #C16E6C",
"s  c #C4706D",
"d  c #C77170",
"f  c #CA7271",
"g  c #83833F",
"h  c #858640",
"j  c #868840",
"k  c #898C41",
"l  c #8C9343",
"z  c #8F9844",
"x  c #919A44",
"c  c #95A246",
"v  c #98A747",
"b  c #9CAD48",
"n  c #9EB149",
"m  c #A1B54A",
"M  c #A4BA4B",
"N  c #A8B75E",
"B  c #8D8261",
"V  c #968E6B",
"C  c #98906D",
"Z  c #9D9673",
"A  c #9F9975",
"S  c #A09A76",
"D  c #A49F7A",
"F  c #A4A570",
"G  c #A7A27D",
"H  c #A8A37D",
"J  c #A7C14C",
"K  c #A9C44D",
"L  c #ADCB4F",
"P  c #B0CF4F",
"I  c #B0D04F",
"U  c #B0CF50",
"Y  c #B1D150",
"T  c #B6D45B",
"R  c #B9D663",
"E  c #BED86C",
"W  c #C2DB76",
"Q  c #C5DD7D",
"!  c #ADAA84",
"~  c #B1AF89",
"^  c #B2B483",
"/  c #B4B48D",
"(  c #BDBE96",
")  c #BBC880",
"_  c #BFC199",
"`  c #C7DE81",
"'  c #C4C69E",
"]  c #C5C89F",
"[  c #CDE18F",
"{  c #CFE392",
"}  c #D3E59B",
"|  c #D3E59C",
" . c #D4E59F",
".. c #C6C9A0",
"X. c #C6CAA1",
"o. c #C6C9A0",
"O. c #C9CDA3",
"+. c #CACFA5",
"@. c #C9CDA4",
"#. c #CBD0A6",
"$. c #CED3A9",
"%. c #D0D6AC",
"&. c #D2D8AE",
"*. c #D4DBB1",
"=. c #D6DEB3",
"-. c #D7E7A5",
";. c #D6E7A4",
":. c #D8E8A6",
">. c #DAE9AB",
",. c #DAE9AD",
"<. c #DAE9AD",
"1. c #D8E0B5",
"2. c #DAE2B7",
"3. c #DEECB6",
"4. c #DEEBB4",
"5. c #DDE6BA",
"6. c #DCE5BA",
"7. c #DEE8BB",
"8. c #DFE9BD",
"9. c #E1EDBB",
"0. c #E1EBBF",
"q. c #E2EEBF",
"w. c #E1ECBD",
"e. c #E3EEC0",
"r. c #E4EFC2",
"t. c #E4EFC2",
/* pixels */
"                                                  X = ; - ; ; * X                                   ",
"                                        . X - b n n L Y Y Y U J n n v O X X                         ",
"                                      - j Y Y Y Y Y Y Y Y Y Y Y Y Y Y Y L g -                       ",
"                                  X b L Y Y Y Y Y Y Y Y Y Y Y Y Y Y Y Y I Y L v X                   ",
"                              X : K Y Y Y Y Y Y Y Y Y Y Y Y Y Y Y Y Y Y Y Y Y Y M - X               ",
"                            X z Y Y Y Y Y Y Y Y Y Y Y Y Y Y Y Y Y Y Y Y Y Y Y Y Y L l o             ",
"                          X h Y Y Y Y Y Y Y Y Y Y Y Y Y Y Y Y Y Y Y Y Y Y Y Y Y Y Y L ;             ",
"                          * U Y Y Y Y Y I Y Y Y Y Y Y Y Y Y Y Y Y Y Y Y Y Y Y Y Y Y Y J X           ",
"                        O M I Y Y Y Y Y Y Y Y Y Y Y Y Y Y Y Y Y Y Y Y Y Y Y Y Y Y Y Y Y b           ",
"                        - U Y Y Y Y Y Y Y Y Y Y Y Y Y Y Y Y Y Y Y Y Y Y Y Y Y Y Y Y Y Y L -         ",
"                      X c Y Y Y Y Y Y Y Y I Y Y Y Y Y Y Y Y Y Y Y Y Y Y Y Y Y Y Y Y Y Y Y g X       ",
"                      X Y Y Y Y Y Y Y Y Y Y Y Y Y Y Y Y Y Y Y Y Y Y Y Y Y Y Y Y Y Y Y Y Y L X       ",
"                      o Y Y I Y Y Y Y Y Y Y Y Y Y Y Y Y Y Y Y Y Y Y Y Y Y Y Y Y Y Y Y Y Y Y X       ",
"                      k Y L ; ; Y Y Y Y Y Y Y Y Y Y Y Y Y Y Y Y Y Y Y Y Y Y Y Y Y Y Y Y Y Y h       ",
"                      n L - X X ; Y Y Y Y Y Y Y I Y Y Y Y Y Y Y Y M J Y Y I Y Y Y Y Y Y Y Y n       ",
"                      n M o X X ; Y Y Y Y Y Y Y Y Y Y Y Y Y Y Y M O * M Y Y Y Y Y Y Y Y Y Y n       ",
"                      j Y ; X X j Y Y Y Y Y Y Y Y Y Y Y Y Y Y Y X X . ; Y Y Y Y Y Y Y Y Y Y z       ",
"                      o Y M n n Y Y ; M Y L Y Y Y Y Y Y Y Y Y Y . . X : Y Y Y Y Y Y Y Y Y Y O       ",
"          X o         . Y Y Y Y Y Y n j n n l b Y Y Y m M Y Y Y m O = M I Y Y Y Y Y Y Y Y L X       ",
"          X y .       . h Y Y Y Y Y L m : . u $ : J v O M Y Y Y Y M J Y Y Y Y Y Y Y Y Y Y g X       ",
"          X u 7         = L Y Y Y Y Y Y c q s < x ; ; M I Y Y Y Y Y Y Y Y Y Y Y Y Y Y Y J =         ",
"            < p # X X X X - M Y Y Y I v % p u - Y Y Y Y Y Y Y Y Y Y Y Y Y Y Y Y Y Y Y Y -           ",
"          $ 0 f p u p f d 9 < < + X + < u s < M Y Y Y Y I Y Y Y I Y L - b Y Y Y Y Y L - .           ",
"        $ a 7 < # o # < < u f f i u i f i $ l L Y I Y Y Y Y Y Y I L - z Y Y Y Y I Y -               ",
"        X X .             X w + 9 q 9 O - M I I Y Y Y Y Y I I m x = g Y Y Y Y L v - X               ",
"                        + ~ 0.#.' ] X O ; M Y I Y Y Y Y c ; - O n L Y Y Y Y g - - M x X             ",
"            o - X     . A r.r.r.r.r.r.r.S e e e e e e e e F Y Y Y Y M n = - g K Y Y Y j X           ",
"      . O x m z X     G r.r.r.r.r.r.r.r.r.r.r.r.r.r.r.r. .T Y Y P g = c m P I I Y Y Y I =           ",
"      = U Y K -     o ..r.r.r.r.r.r.r.r.r.r.r.r.r.3.:.R I Y Y Y x ; I Y I Y Y Y Y Y Y Y n           ",
"  . - L Y Y ;       5 5.r.r.r.r.r.r.r.r.r.r.r.9.E R Y Y I Y Y Y O n Y Y Y Y Y Y Y Y Y Y m o         ",
"  X P Y Y I X     O e r.r.r.r.r.r.r.r.r.9.;.Y Y I I Y Y Y Y Y Y M M Y Y Y Y Y Y Y Y Y Y M O X       ",
"  ! Y Y Y M X   O b , %.r.r.r.r.r.r.r.r.E Y Y Y Y Y Y Y Y Y Y Y Y Y Y Y Y Y Y Y Y Y Y Y n * x X     ",
"X ..Y Y Y m X X k Y h ' t.t.t.t.r.r.r.E Y Y Y Y Y Y Y Y Y Y Y Y Y Y Y Y Y Y Y Y Y Y Y Y x n Y j .   ",
"2 =.Y Y Y Y X S Y Y n 3 t.t.t.t.r.r.r.E Y Y Y Y Y Y Y Y Y Y Y Y Y Y Y Y Y Y Y Y Y Y P P - J Y Y O   ",
"e r.T Y Y Y ; ..Y Y Y j 5 5.t.t.r.r.r.Q Y Y Y Y Y Y Y Y Y Y Y Y Y Y Y Y Y Y Y Y Y Y L - j Y Y Y n   ",
"e r.| Y Y Y 5 5.Y Y Y Y l w r.t.r.r.r.q.[ Y Y Y Y Y Y Y Y Y Y I Y Y Y Y Y Y Y Y Y Y - z Y Y Y Y M O ",
"3 =.<.T I Y e t.T Y Y Y Y j 3 @.r.r.r.r.r.[ E Y Y Y I Y Y Y Y Y Y I Y Y Y Y Y Y b - j Y Y Y Y Y Y ; ",
"X ] r.Q Y Y e t. .Y Y Y Y Y b - B *.r.r.r.r.r.>.:.W I I Y Y I I Y Y Y Y Y Y ) ; = m Y Y Y Y Y Y Y ; ",
"  H r.r.R Y w 0.4.T Y Y Y Y Y Y x - 5 ' #.r.r.r.r.r.r.r.r.r.9.:.4.q.q.@.' 3 ; b Y Y Y Y Y Y Y Y J * ",
"  X H r.0.E = O.t.>.Y Y Y Y Y Y Y P n c @ w e t ] r.r.r.r.r.0._ r e w O b n U Y Y Y Y Y Y Y Y Y n   ",
"    , ( t.t.' ! t.t.{ Y Y Y Y Y Y Y Y Y Y Y M : ; - ; ; ; ; - ; : J Y Y Y Y Y Y Y Y Y Y Y Y I Y ;   ",
"      @ Z t.6.4 ( t.0.;.Y Y Y Y Y Y Y Y Y Y Y I Y Y Y Y Y Y Y Y Y Y Y Y Y Y Y Y Y Y Y Y Y Y Y k X   ",
"        . 1 .._ 4 2.r.r.<.T Y Y Y Y Y Y Y Y Y Y Y Y Y Y Y Y Y Y Y Y Y Y Y Y Y Y Y Y Y Y I R N ,     ",
"            X 5 X 3 5.r.r.4.{ Y Y Y Y Y Y Y Y Y Y Y Y Y Y Y Y Y Y Y Y Y Y Y Y Y Y Y Y Y E ^ 1       ",
"                X X @ / r.t.t.t.E T Y Y Y Y Y I Y Y Y Y Y Y Y Y Y Y Y Y Y Y Y Y Y R E <.! X         ",
"                      X B &.t.t.r.3.:.Q Y Y Y I Y Y Y Y Y Y Y Y Y Y Y Y Y U Y W -.3.$.e X           ",
"                          X V ..r.r.r.r.r.r.` E E E R T Y Y Y T R E E E W 3.t.t.' w X               ",
"                              X e C r.r.r.r.r.r.r.r.9.4.>.-.:.<.9.r.r.r.t.t.t e X                   ",
"                                  X X X G ' ' ] %.0.r.r.r.r.5.$.] ' ' V X X X                       ",
"                                              X 1 w e e e e w , X                                   "
};
