/* XPM */
static char *b579f974235c4d02edbc2bda6d35adc4CHkJE03VXtxuOvZd[] = {
/* columns rows colors chars-per-pixel */
"50 50 93 2 ",
"   c None",
".  c #3C0000",
"X  c #361509",
"o  c #3C1709",
"O  c #39190A",
"+  c #410001",
"@  c #4A0203",
"#  c #530305",
"$  c #630609",
"%  c #71070A",
"&  c #7E090D",
"*  c #402312",
"=  c #0D7D35",
"-  c #197433",
";  c #107F37",
":  c #3A6B35",
">  c #486031",
",  c #800A0E",
"<  c #880A0F",
"1  c #8C0B10",
"2  c #9A0C13",
"3  c #A30E15",
"4  c #AB0F16",
"5  c #BD0F18",
"6  c #A81017",
"7  c #B61119",
"8  c #BF1119",
"9  c #BE1B1D",
"0  c #A7211E",
"q  c #BA251E",
"w  c #B72C1F",
"e  c #A52622",
"r  c #B13822",
"t  c #C4131C",
"y  c #C8151E",
"u  c #C21D1F",
"i  c #C61720",
"p  c #C91721",
"a  c #C41922",
"s  c #C91D26",
"d  c #CA252D",
"f  c #CB2D35",
"g  c #CC333B",
"h  c #975F24",
"j  c #AA4423",
"k  c #A64D25",
"l  c #AA5227",
"z  c #9B6127",
"x  c #9D6429",
"c  c #976D2A",
"v  c #8C7E2B",
"b  c #95762C",
"n  c #91792B",
"m  c #977C30",
"M  c #A2652B",
"N  c #CE3C44",
"B  c #D03A42",
"V  c #D1444C",
"C  c #D34E55",
"Z  c #D45057",
"A  c #D6575D",
"S  c #D75C63",
"D  c #D85F65",
"F  c #D86167",
"G  c #DA676D",
"H  c #DA696F",
"J  c #DB6C72",
"K  c #DE7076",
"L  c #0D8037",
"P  c #0E833A",
"I  c #158237",
"U  c #16863A",
"Y  c #1A8638",
"T  c #228636",
"R  c #248937",
"E  c #228A3A",
"W  c #298E3B",
"Q  c #328D37",
"!  c #398F37",
"~  c #429136",
"^  c #4C9332",
"/  c #5A9630",
"(  c #689F35",
")  c #75A730",
"_  c #7CAD35",
"`  c #7FAF38",
"'  c #7FB037",
"]  c #7FB038",
"[  c #8F842E",
"{  c #86A336",
"}  c #80AA35",
"|  c #80B037",
" . c #81B139",
/* pixels */
"                                                                                                    ",
"                                                                P P P                               ",
"                                                          P = P P = =                               ",
"                                              . . +     = = P U U P P                               ",
"                                              . . .   P P R ^ Q I P                                 ",
"                                              . . X P U ~ ( E P P P                                 ",
"                                              . + o ! / ^ W P = P                                   ",
"                                t t y t t     + . O T Y U P P - 0 t p                               ",
"                          t 8 t t t t t t t t , . * : : : > e t t t t t t                           ",
"                    t t t t t t t t t t t t t , + 3 t t t t t t t t t t t t t t                     ",
"                t t t t t t t y t t t t 8 8 8 , . 2 t t t t t t y t t t p y t p y                   ",
"              t t 8 t t t t t t t t & . < t t 1 + 6 t t $ @ 6 t p t t t t t t t t t t               ",
"            t t t t t t 5 t t t t t 4 . % 7 t 3 + t t & . + 3 t y t t y t t t t t t t t             ",
"          t 5 t t t t t t t t t t t t @ . . . . . @ # . + , t y t y p t p s s t t t y t t           ",
"        t t 8 t t t t t t t t t t t t 7 $ . . . . . + . < t t t t y t d Z F A V B y t t t           ",
"        t t t t 5 y y t t t y t t t t t 8 7 & . . . # 3 t t t y t t t F J J J J J C t y t t         ",
"      t t t t t t t t t 8 8 t 8 t i t y t t t t t t t t t t t t t t a J H H H J J J g 8 t t         ",
"      t t t t t 8 t t t t t t t t t t t t t t t t t t t 5 t t t t t t J H H J H K J Z 9 t 8 t       ",
"    t t 8 t t t t t t t t t y t t t t y t t t t t y t t t t t t t t t H K J H H J J H a 8 t t       ",
"    t t t 8 t t t t t t t t t t t y t t t y t y t t t t t t t t t t t N J J K J J J H a t t t t     ",
"    t t y t t t t t t t y t t t t 5 t t t t t y t t t 8 t t t 8 8 t 8 a A H H H J J J a t 8 t t     ",
"    t t t t t t t y y t y t t t t t 5 t t t t y t t t t t 5 t t t t t t N F H G H J g t t 5 8 t     ",
"    t t t y t t t t t t t t t t t t 5 t t t t y t t t t t t t t t t t t t a g V N g t t t t t t     ",
"    t t t t t t y y t y t t t t 5 t 5 t t t t t y t t 5 t t 5 5 t 8 8 t t t t t t t t t t t t t     ",
"    t t t t t t t t t t t t y t t t t t t t y t y t t t t t 5 t t t t t 5 t t t t t 8 t y t y t     ",
"    t t t t t t t t t t t t t t t y y y y y t t t t t t t t 5 t t 5 t t t t t t i C C i t t y t     ",
"    y t t t t t t t t t t t y t t t y y t y t t t t t t t t t t t t t t t t t t H J J a t t t t     ",
"    t t t t t y t t t t t t t t t t t t t t 8 t t t t t 8 t t 8 8 t t t t t t V K J H f t t t t     ",
"    p t y y y t t t t t t t t t t t t t t t t t t t t t t t 8 t t 8 t t t t t s S K V t t 8 t t     ",
"    t t t t t y y t t t t y t t t t t t t t t t 5 t t t t t t t t t t t t t t t 8 8 t 5 t t t t     ",
"    y t t t t t t t t y t t t t t t t t t t t t t t t t 8 8 t t t t t t t t t t t t 8 t t t t t     ",
"      y y t y t y y t t t t t t t t 8 t t t t t 5 t t t t t t t t t t p t t t t t t t 8 t t t y     ",
"      y t t t t t t t t t 8 8 t t 5 t 5 t t t t t t t t t t t y t t 5 t t t t t t t t t t t t       ",
"      t t t t t t t t 8 t t t t t t t t 5 t t t 5 t y t t y t t t t t t t t t t y t t t t 5 t       ",
"        t t t t t t t t t t t t 5 t t t t t t t t y t t p t y t t t t t t t t t t t t t t t         ",
"        t t t t t 5 8 t t t t t t t t t t t t t t y y t t t y t t t t t t t t t t t 5 t t t         ",
"        t t t t t t t t t t t t t t y t t y t y t t y y t t t t t t t t t t t t t t t t t           ",
"          t t t t t t t 8 t t t t t t y y y t t t t t t y y t t t t t t t t t t 8 t t t t           ",
"            t t t 5 t t t t t t t t y y t y y y t t t t y t t t 5 t t t t t t 5 t t t t             ",
"            y t t t t t t t t 8 t t t t t t t t 5 t t t t t t y t t t t t t t t t t t t             ",
"              t t t t t t t t t t t t t t t t t t t y t t t t t t t t t t t t y t t t               ",
"                t t t t t k k t 8 t t t t t t t M r t t t t t t t t t t t t t t y t                 ",
"                  t u m ] ' _ _ w t t t t t r b } _ b 9 t t t t 9 j _ _ _ c q u t                   ",
"                       .' | '  ._ n z z x M _ _ _  ._ v x h x z [ ] _  . .| { l                     ",
"                          _ _ '  ._ ) _ ] _ _ _ _ _ _ _ _ ) _ _  . . . .|  . .                      ",
"                            _ _  ._ ] _ _ ' ' }  . ._ _ _ _ _ _ _  . . .} _                         ",
"                                  _  ._ ' ' ' _  . ._ _ _ ) _ _ _  .                                ",
"                                      ' _ '  . ._ _ ) _ _ _ _  .                                    ",
"                                                                                                    ",
"                                                                                                    "
};
